<svg width="24" height="24" fill="none" xmlns="http://www.w3.org/2000/svg"><path d="M15.71 15.71a1 1 0 000-1.42L13.41 12l2.3-2.29a1.004 1.004 0 10-1.42-1.42L12 10.59l-2.29-2.3a1.004 1.004 0 00-1.42 1.42l2.3 2.29-2.3 2.29a1 1 0 000 1.42.998.998 0 001.42 0l2.29-2.3 2.29 2.3a.999.999 0 001.42 0z"  class="card-icon-close"/><path opacity=".1" d="M8 19a3 3 0 01-3-3V8a3 3 0 013-3 1 1 0 000-2 5 5 0 00-5 5v8a5 5 0 005 5 1 1 0 000-2zm8-16a1 1 0 100 2 3 3 0 013 3v8a3 3 0 01-3 3 1 1 0 000 2 5 5 0 005-5V8a5 5 0 00-5-5z" class="card-icon-close" /></svg>