<svg width="72" height="72" fill="none" xmlns="http://www.w3.org/2000/svg"><path fill="#111827" d="M0 0h72v72H0z"/><path d="M61.47 22.56a.571.571 0 010-.24.509.509 0 010-.21v-.27l-.18-.45a1.439 1.439 0 00-.27-.33l-.27-.24h-.15l-11.82-7.47-11.16-6.9a2.55 2.55 0 00-.87-.45h-.24a2.46 2.46 0 00-.81 0h-.3a3.39 3.39 0 00-.99.39L12 20.34l-.27.21-.27.24-.3.21-.15.18-.18.45v.45c-.03.199-.03.401 0 .6v26.19a3 3 0 001.41 2.55l22.5 13.92.45.18h.24a2.58 2.58 0 001.56 0h.24l.45-.18L60 51.63a3 3 0 001.41-2.55V22.89s.06-.21.06-.33zM36 12.51l5.34 3.3-16.77 10.38-5.37-3.3L36 12.51zm-3 45L16.5 47.43V28.26L33 38.46v19.05zm3-24.33l-5.73-3.45 16.77-10.41 5.76 3.57L36 33.18zm19.5 14.16L39 57.6V38.46l16.5-10.2v19.08z" fill="#3B82F6"/></svg>