<svg width="32" height="32" fill="none" xmlns="http://www.w3.org/2000/svg"><path d="M16 12a1 1 0 011 1 1 1 0 002 0 2.999 2.999 0 10-5.018 2.22c.01.01.162.17.194.215a.988.988 0 010 1.12.999.999 0 101.648 1.13 2.983 2.983 0 00-.005-3.388 7.11 7.11 0 00-.49-.557A1 1 0 0116 12zm0-6a7 7 0 00-6.762 8.812 1 1 0 001.932-.518A5 5 0 1121 13a5.114 5.114 0 01-.705 2.567L16.73 23A2.006 2.006 0 0115 24a2.027 2.027 0 01-2-2c0-.35.093-.695.269-.999a1 1 0 00-1.733-1.002 3.998 3.998 0 106.963 3.934l3.564-7.433A7 7 0 0016 6z" fill="currentColor"/></svg>