<svg width="32" height="32" fill="none" xmlns="http://www.w3.org/2000/svg"><path d="M21.66 12.34a1 1 0 00.7-.29l.71-.71a1 1 0 10-1.41-1.41l-.66.71a1 1 0 000 1.41 1 1 0 00.66.29zM16 10a1 1 0 001-1V8a1 1 0 00-2 0v1a1 1 0 001 1zm-8 6H7a1 1 0 000 2h1a1 1 0 000-2zm1.64-3.95a1 1 0 001.41 0 1 1 0 000-1.41l-.71-.71a1 1 0 00-1.41 1.41l.71.71zM25 16h-1a1 1 0 000 2h1a1 1 0 000-2zm-10 7h-3a1 1 0 000 2h3a1 1 0 000-2zm7-4h-.88a5.39 5.39 0 00.38-2 5.5 5.5 0 00-11 0 5.39 5.39 0 00.38 2H10a1 1 0 000 2h12a1 1 0 000-2zm-3.15 0h-5.7a3.44 3.44 0 01-.65-2 3.5 3.5 0 117 0 3.44 3.44 0 01-.65 2zM20 23h-1a1 1 0 000 2h1a1 1 0 000-2z" fill="currentColor"/></svg>